<svg xmlns="http://www.w3.org/2000/svg" viewBox="0 0 180 220">
  <path d="M57 24h66v24c0 10 19 21 19 43v82c0 20-16 36-36 36H74c-20 0-36-16-36-36V91c0-22 19-33 19-43V24Z" fill="#fff8df" stroke="#141713" stroke-width="8" stroke-linejoin="round"/>
  <path d="M52 24h76M49 67h82M45 174h90" fill="none" stroke="#141713" stroke-width="6" stroke-linecap="round"/>
  <path d="M72 121c10-20 25 14 38-5 8-11 19-7 25 1v42H55v-31c6 7 11 6 17-7Z" fill="#5db84a" opacity=".78"/>
  <circle cx="91" cy="106" r="7" fill="#141713"/><circle cx="117" cy="140" r="5" fill="#141713"/><circle cx="72" cy="148" r="4" fill="#141713"/>
</svg>
